REM DIRINDEX 1\2,1\3,1\4
REM DIRNAME folder01,folder02,folder03,folder04
TITLE ""
FILE "Disc2Track02.mp3" MP3
  TRACK 01 AUDIO
    TITLE "0:"
    INDEX 01 00:00:00
  TRACK 02 AUDIO
    TITLE "4:cjc085_1096"
    INDEX 01 00:05:50
  TRACK 03 AUDIO
    TITLE "0:"
    INDEX 01 00:09:32
  TRACK 04 AUDIO
    TITLE "4:cjc085_1097"
    INDEX 01 00:10:57
  TRACK 05 AUDIO
    TITLE "0:"
    INDEX 01 00:12:01
  TRACK 06 AUDIO
    TITLE "4:cjc085_1098"
    INDEX 01 00:12:63
  TRACK 07 AUDIO
    TITLE "2:cjc085_1099"
    INDEX 01 00:15:34
  TRACK 08 AUDIO
    TITLE "0:"
    INDEX 01 00:19:48
  TRACK 09 AUDIO
    TITLE "3:cjc085_1100"
    INDEX 01 00:20:12
  TRACK 10 AUDIO
    TITLE "0:"
    INDEX 01 00:24:43
  TRACK 11 AUDIO
    TITLE "4:cjc085_1101"
    INDEX 01 00:24:72
  TRACK 12 AUDIO
    TITLE "2:cjc085_1102"
    INDEX 01 00:27:55
  TRACK 13 AUDIO
    TITLE "0:"
    INDEX 01 00:30:36
  TRACK 14 AUDIO
    TITLE "3:cjc085_1103"
    INDEX 01 00:31:00
  TRACK 15 AUDIO
    TITLE "0:"
    INDEX 01 00:33:71
  TRACK 16 AUDIO
    TITLE "4:cjc085_1104"
    INDEX 01 00:34:42
  TRACK 17 AUDIO
    TITLE "2:cjc085_1105"
    INDEX 01 00:37:20
  TRACK 18 AUDIO
    TITLE "0:"
    INDEX 01 00:40:09
  TRACK 19 AUDIO
    TITLE "3:cjc085_1106"
    INDEX 01 00:40:50
  TRACK 20 AUDIO
    TITLE "0:"
    INDEX 01 00:43:31
  TRACK 21 AUDIO
    TITLE "4:cjc085_1107"
    INDEX 01 00:43:66
  TRACK 22 AUDIO
    TITLE "2:cjc085_1108"
    INDEX 01 00:46:19
  TRACK 23 AUDIO
    TITLE "0:"
    INDEX 01 00:49:27
  TRACK 24 AUDIO
    TITLE "3:cjc085_1109"
    INDEX 01 00:50:37
  TRACK 25 AUDIO
    TITLE "0:"
    INDEX 01 00:53:31
  TRACK 26 AUDIO
    TITLE "4:cjc085_1110"
    INDEX 01 00:54:32
  TRACK 27 AUDIO
    TITLE "0:"
    INDEX 01 00:55:50
  TRACK 28 AUDIO
    TITLE "4:cjc085_1111"
    INDEX 01 00:56:20
  TRACK 29 AUDIO
    TITLE "2:cjc085_1112"
    INDEX 01 00:58:66
  TRACK 30 AUDIO
    TITLE "0:"
    INDEX 01 01:02:63
  TRACK 31 AUDIO
    TITLE "3:cjc085_1113"
    INDEX 01 01:03:41
  TRACK 32 AUDIO
    TITLE "0:"
    INDEX 01 01:06:45
  TRACK 33 AUDIO
    TITLE "4:cjc085_1114"
    INDEX 01 01:07:31
  TRACK 34 AUDIO
    TITLE "2:cjc085_1115"
    INDEX 01 01:09:48
  TRACK 35 AUDIO
    TITLE "0:"
    INDEX 01 01:12:48
  TRACK 36 AUDIO
    TITLE "3:cjc085_1116"
    INDEX 01 01:13:06
  TRACK 37 AUDIO
    TITLE "0:"
    INDEX 01 01:16:38
  TRACK 38 AUDIO
    TITLE "4:cjc085_1117"
    INDEX 01 01:17:24
  TRACK 39 AUDIO
    TITLE "2:cjc085_1118"
    INDEX 01 01:20:06
  TRACK 40 AUDIO
    TITLE "0:"
    INDEX 01 01:22:70
  TRACK 41 AUDIO
    TITLE "3:cjc085_1119"
    INDEX 01 01:23:03
  TRACK 42 AUDIO
    TITLE "0:"
    INDEX 01 01:25:58
  TRACK 43 AUDIO
    TITLE "4:cjc085_1120"
    INDEX 01 01:26:21
  TRACK 44 AUDIO
    TITLE "2:cjc085_1121"
    INDEX 01 01:28:74
  TRACK 45 AUDIO
    TITLE "0:"
    INDEX 01 01:32:55
  TRACK 46 AUDIO
    TITLE "3:cjc085_1122"
    INDEX 01 01:33:27
  TRACK 47 AUDIO
    TITLE "0:"
    INDEX 01 01:36:13
  TRACK 48 AUDIO
    TITLE "4:cjc085_1123"
    INDEX 01 01:36:62
  TRACK 49 AUDIO
    TITLE "2:cjc085_1124"
    INDEX 01 01:39:04
  TRACK 50 AUDIO
    TITLE "0:"
    INDEX 01 01:42:65
  TRACK 51 AUDIO
    TITLE "3:cjc085_1125"
    INDEX 01 01:43:33
  TRACK 52 AUDIO
    TITLE "0:"
    INDEX 01 01:46:61
  TRACK 53 AUDIO
    TITLE "4:cjc085_1126"
    INDEX 01 01:46:72
  TRACK 54 AUDIO
    TITLE "2:cjc085_1127"
    INDEX 01 01:49:49
  TRACK 55 AUDIO
    TITLE "0:"
    INDEX 01 01:53:06
  TRACK 56 AUDIO
    TITLE "3:cjc085_1128"
    INDEX 01 01:53:18
  TRACK 57 AUDIO
    TITLE "0:"
    INDEX 01 01:56:57
  TRACK 58 AUDIO
    TITLE "4:cjc085_1129"
    INDEX 01 01:57:13
  TRACK 59 AUDIO
    TITLE "2:cjc085_1130"
    INDEX 01 01:59:65
  TRACK 60 AUDIO
    TITLE "0:"
    INDEX 01 02:03:36
  TRACK 61 AUDIO
    TITLE "3:cjc085_1131"
    INDEX 01 02:04:25
  TRACK 62 AUDIO
    TITLE "0:"
    INDEX 01 02:07:55
  TRACK 63 AUDIO
    TITLE "4:cjc085_1132"
    INDEX 01 02:08:45
  TRACK 64 AUDIO
    TITLE "2:cjc085_1133"
    INDEX 01 02:11:15
  TRACK 65 AUDIO
    TITLE "0:"
    INDEX 01 02:16:28
  TRACK 66 AUDIO
    TITLE "3:cjc085_1134"
    INDEX 01 02:16:72
  TRACK 67 AUDIO
    TITLE "0:"
    INDEX 01 02:22:31
  TRACK 68 AUDIO
    TITLE "4:cjc085_1135"
    INDEX 01 02:23:15
  TRACK 69 AUDIO
    TITLE "2:cjc085_1136"
    INDEX 01 02:26:13
  TRACK 70 AUDIO
    TITLE "0:"
    INDEX 01 02:31:53
  TRACK 71 AUDIO
    TITLE "3:cjc085_1137"
    INDEX 01 02:31:61
  TRACK 72 AUDIO
    TITLE "0:"
    INDEX 01 02:36:60
  TRACK 73 AUDIO
    TITLE "4:cjc085_1138"
    INDEX 01 02:37:25
  TRACK 74 AUDIO
    TITLE "2:cjc085_1139"
    INDEX 01 02:39:61
  TRACK 75 AUDIO
    TITLE "0:"
    INDEX 01 02:45:38
  TRACK 76 AUDIO
    TITLE "3:cjc085_1140"
    INDEX 01 02:45:65
  TRACK 77 AUDIO
    TITLE "0:"
    INDEX 01 02:51:09
  TRACK 78 AUDIO
    TITLE "4:cjc085_1141"
    INDEX 01 02:51:70
  TRACK 79 AUDIO
    TITLE "2:cjc085_1142"
    INDEX 01 02:54:60
  TRACK 80 AUDIO
    TITLE "0:"
    INDEX 01 02:57:59
  TRACK 81 AUDIO
    TITLE "3:cjc085_1143"
    INDEX 01 02:58:64
  TRACK 82 AUDIO
    TITLE "0:"
    INDEX 01 03:01:33
  TRACK 83 AUDIO
    TITLE "4:cjc085_1144"
    INDEX 01 03:02:29
  TRACK 84 AUDIO
    TITLE "2:cjc085_1145"
    INDEX 01 03:05:07
  TRACK 85 AUDIO
    TITLE "0:"
    INDEX 01 03:08:51
  TRACK 86 AUDIO
    TITLE "3:cjc085_1146"
    INDEX 01 03:09:01
  TRACK 87 AUDIO
    TITLE "0:"
    INDEX 01 03:11:65
  TRACK 88 AUDIO
    TITLE "4:cjc085_1147"
    INDEX 01 03:12:56
  TRACK 89 AUDIO
    TITLE "2:cjc085_1148"
    INDEX 01 03:15:21
  TRACK 90 AUDIO
    TITLE "0:"
    INDEX 01 03:19:74
  TRACK 91 AUDIO
    TITLE "3:cjc085_1149"
    INDEX 01 03:20:13
  TRACK 92 AUDIO
    TITLE "0:"
    INDEX 01 03:24:36
  TRACK 93 AUDIO
    TITLE "4:cjc085_1150"
    INDEX 01 03:25:10
  TRACK 94 AUDIO
    TITLE "2:cjc085_1151"
    INDEX 01 03:27:66
  TRACK 95 AUDIO
    TITLE "0:"
    INDEX 01 03:31:32
  TRACK 96 AUDIO
    TITLE "3:cjc085_1152"
    INDEX 01 03:31:40
  TRACK 97 AUDIO
    TITLE "0:"
    INDEX 01 03:34:56
  TRACK 98 AUDIO
    TITLE "4:cjc085_1153"
    INDEX 01 03:35:34
  TRACK 99 AUDIO
    TITLE "2:cjc085_1154"
    INDEX 01 03:37:74
  TRACK 100 AUDIO
    TITLE "0:"
    INDEX 01 03:41:42
  TRACK 101 AUDIO
    TITLE "3:cjc085_1155"
    INDEX 01 03:41:66
  TRACK 102 AUDIO
    TITLE "0:"
    INDEX 01 03:44:35
  TRACK 103 AUDIO
    TITLE "4:cjc085_1156"
    INDEX 01 03:46:20
  TRACK 104 AUDIO
    TITLE "2:cjc085_1157"
    INDEX 01 03:49:01
  TRACK 105 AUDIO
    TITLE "0:"
    INDEX 01 03:53:24
  TRACK 106 AUDIO
    TITLE "3:cjc085_1158"
    INDEX 01 03:53:71
  TRACK 107 AUDIO
    TITLE "0:"
    INDEX 01 03:57:63
  TRACK 108 AUDIO
    TITLE "4:cjc085_1159"
    INDEX 01 03:58:54
  TRACK 109 AUDIO
    TITLE "2:cjc085_1160"
    INDEX 01 04:01:20
  TRACK 110 AUDIO
    TITLE "0:"
    INDEX 01 04:05:06
  TRACK 111 AUDIO
    TITLE "3:cjc085_1161"
    INDEX 01 04:05:23
  TRACK 112 AUDIO
    TITLE "0:"
    INDEX 01 04:08:39
  TRACK 113 AUDIO
    TITLE "4:cjc085_1162"
    INDEX 01 04:08:45
  TRACK 114 AUDIO
    TITLE "2:cjc085_1163"
    INDEX 01 04:11:20
  TRACK 115 AUDIO
    TITLE "0:"
    INDEX 01 04:17:36
  TRACK 116 AUDIO
    TITLE "3:cjc085_1164"
    INDEX 01 04:17:48
  TRACK 117 AUDIO
    TITLE "0:"
    INDEX 01 04:21:28
  TRACK 118 AUDIO
    TITLE "4:cjc085_1165"
    INDEX 01 04:21:48
  TRACK 119 AUDIO
    TITLE "2:cjc085_1166"
    INDEX 01 04:24:09
  TRACK 120 AUDIO
    TITLE "0:"
    INDEX 01 04:27:52
  TRACK 121 AUDIO
    TITLE "3:cjc085_1167"
    INDEX 01 04:28:36
  TRACK 122 AUDIO
    TITLE "0:"
    INDEX 01 04:30:60
  TRACK 123 AUDIO
    TITLE "4:cjc085_1168"
    INDEX 01 04:32:08
  TRACK 124 AUDIO
    TITLE "2:cjc085_1169"
    INDEX 01 04:34:35
  TRACK 125 AUDIO
    TITLE "0:"
    INDEX 01 04:39:18
  TRACK 126 AUDIO
    TITLE "3:cjc085_1170"
    INDEX 01 04:39:38
  TRACK 127 AUDIO
    TITLE "0:"
    INDEX 01 04:43:55
  TRACK 128 AUDIO
    TITLE "4:cjc085_1171"
    INDEX 01 04:44:49
  TRACK 129 AUDIO
    TITLE "2:cjc085_1172"
    INDEX 01 04:47:61
  TRACK 130 AUDIO
    TITLE "0:"
    INDEX 01 04:54:16
  TRACK 131 AUDIO
    TITLE "3:cjc085_1173"
    INDEX 01 04:55:15
  TRACK 132 AUDIO
    TITLE "0:"
    INDEX 01 04:59:03
  TRACK 133 AUDIO
    TITLE "4:cjc085_1174"
    INDEX 01 04:59:58
  TRACK 134 AUDIO
    TITLE "2:cjc085_1175"
    INDEX 01 05:02:39
  TRACK 135 AUDIO
    TITLE "0:"
    INDEX 01 05:05:51
  TRACK 136 AUDIO
    TITLE "3:cjc085_1176"
    INDEX 01 05:06:25
  TRACK 137 AUDIO
    TITLE "0:"
    INDEX 01 05:09:39
  TRACK 138 AUDIO
    TITLE "4:cjc085_1177"
    INDEX 01 05:11:04
  TRACK 139 AUDIO
    TITLE "2:cjc085_1178"
    INDEX 01 05:14:05
  TRACK 140 AUDIO
    TITLE "0:"
    INDEX 01 05:19:51
  TRACK 141 AUDIO
    TITLE "3:cjc085_1179"
    INDEX 01 05:20:00
  TRACK 142 AUDIO
    TITLE "0:"
    INDEX 01 05:24:05
  TRACK 143 AUDIO
    TITLE "4:cjc085_1180"
    INDEX 01 05:24:40
  TRACK 144 AUDIO
    TITLE "2:cjc085_1181"
    INDEX 01 05:27:31
  TRACK 145 AUDIO
    TITLE "0:"
    INDEX 01 05:30:47
  TRACK 146 AUDIO
    TITLE "3:cjc085_1182"
    INDEX 01 05:31:19
  TRACK 147 AUDIO
    TITLE "0:"
    INDEX 01 05:34:06
  TRACK 148 AUDIO
    TITLE "4:cjc085_1183"
    INDEX 01 05:34:66
  TRACK 149 AUDIO
    TITLE "2:cjc085_1184"
    INDEX 01 05:37:33
  TRACK 150 AUDIO
    TITLE "0:"
    INDEX 01 05:40:32
  TRACK 151 AUDIO
    TITLE "3:cjc085_1185"
    INDEX 01 05:40:51
  TRACK 152 AUDIO
    TITLE "0:"
    INDEX 01 05:43:57
